<?xml version="1.0" encoding="UTF-8"?>
<svg version="1.1" xmlns="http://www.w3.org/2000/svg" width="512" height="512">
<path d="M0 0 C0.87495117 0.18191895 1.74990234 0.36383789 2.65136719 0.55126953 C38.85338687 8.18603395 73.39927827 24.53366826 102 48 C102.53866699 48.43715332 103.07733398 48.87430664 103.63232422 49.32470703 C118.71649974 61.62316531 132.51068329 75.27063219 144 91 C144.85806152 92.15105017 145.71613451 93.30209177 146.57421875 94.453125 C152.61297189 102.64586494 157.94713163 111.1709002 163 120 C163.65613281 121.12277344 164.31226563 122.24554688 164.98828125 123.40234375 C176.8541151 144.5420758 184.56858932 167.90408429 189.25 191.625 C189.40130371 192.38651367 189.55260742 193.14802734 189.70849609 193.93261719 C193.03119389 212.05164494 193.2986733 230.10932627 193.29052734 248.47363281 C193.29544755 251.19411246 193.30327648 253.91458226 193.31088257 256.63505554 C193.32734742 263.20881161 193.33298512 269.78253177 193.33410732 276.35630676 C193.33506313 281.69904759 193.33919965 287.04177673 193.34550858 292.38451385 C193.3630679 307.56530069 193.37235379 322.74605948 193.37084763 337.92685655 C193.37076772 338.7416726 193.3706878 339.55648865 193.37060547 340.39599609 C193.37052371 341.21181568 193.37044195 342.02763527 193.37035771 342.86817667 C193.36954247 356.12836736 193.38875357 369.38844513 193.4168822 382.64860311 C193.44560337 396.29640625 193.45942347 409.9441542 193.45769465 423.59198833 C193.45703132 431.24182732 193.46250101 438.89154729 193.48405075 446.54135895 C193.50225063 453.04271666 193.50661842 459.54390113 193.4930319 466.04527327 C193.48650102 469.35974868 193.48856283 472.67382235 193.5037384 475.98827934 C193.5191316 479.58251162 193.50992132 483.1758677 193.49447632 486.77008057 C193.50990701 488.33674434 193.50990701 488.33674434 193.52564943 489.93505788 C193.46650756 496.15378557 192.81842036 500.00332471 189 505 C184.84276452 508.22352135 181.1099449 508.42641861 176.0301218 508.38031673 C175.22923778 508.38497665 174.42835376 508.38963657 173.60320053 508.3944377 C170.9086873 508.40642701 168.21467466 508.39697717 165.52015686 508.38768005 C163.57320884 508.39185125 161.62626324 508.39732758 159.67932218 508.40399987 C154.32061159 508.4185013 148.96205417 508.4141951 143.60333502 508.40683305 C137.82750656 508.4021153 132.0517119 508.41459886 126.27589417 508.42485046 C114.95736817 508.44207105 103.63889762 508.44287174 92.32036192 508.43763756 C83.12334811 508.43360077 73.92635072 508.43503357 64.72933769 508.44038582 C63.42177697 508.44113424 62.11421626 508.44188266 60.76703249 508.44265376 C58.11097054 508.4441852 55.45490859 508.44572354 52.79884665 508.44726873 C34.95814364 508.45733046 17.11744651 508.46125675 -0.72325802 508.45364285 C-1.770001 508.45319709 -1.770001 508.45319709 -2.8378903 508.45274232 C-8.50498629 508.45029331 -14.1720822 508.44768176 -19.83917811 508.44505819 C-41.94676933 508.43495493 -64.05428461 508.44331171 -86.16186523 508.46655273 C-110.99300944 508.49261464 -135.82410748 508.50542663 -160.65526587 508.49836498 C-173.80552469 508.49486707 -186.95572112 508.49714251 -200.10597038 508.51461601 C-211.30024947 508.52930563 -222.49442225 508.5300159 -233.68869918 508.5125451 C-239.40282072 508.5040061 -245.1167521 508.50195616 -250.83086395 508.51719666 C-256.05854822 508.53096745 -261.28587805 508.52637906 -266.51354141 508.50695742 C-268.40783235 508.50317363 -270.30215117 508.50618724 -272.19641744 508.51656907 C-274.76613612 508.52965474 -277.33461618 508.5182316 -279.90428066 508.50057125 C-280.64434039 508.51022176 -281.38440012 508.51987227 -282.1468859 508.52981523 C-287.21927457 508.45795495 -290.09160186 507.1875999 -294 504 C-297.83985755 498.699476 -297.4210888 493.17066431 -297.38095093 486.88601685 C-297.3856309 485.76259632 -297.39031087 484.63917579 -297.39513266 483.48171222 C-297.40710505 479.71441357 -297.39761582 475.94747719 -297.38818359 472.18017578 C-297.39224871 469.47933897 -297.39748202 466.77852714 -297.40411377 464.07769775 C-297.4174568 457.49709625 -297.41456857 450.9165974 -297.40587585 444.33599187 C-297.3990916 438.97687376 -297.39818583 433.61778435 -297.4014473 428.25866318 C-297.401907 427.49485504 -297.40236669 426.73104691 -297.40284032 425.94409307 C-297.40379958 424.39203382 -297.40477222 422.83997457 -297.4057581 421.28791533 C-297.41431634 406.72568865 -297.40447646 392.16351857 -297.388357 377.60130118 C-297.37500181 365.15262925 -297.37724125 352.70404144 -297.39111328 340.25537109 C-297.40724534 325.7719878 -297.41344151 311.28865443 -297.40427649 296.8052634 C-297.40332097 295.25351581 -297.40237786 293.70176821 -297.4014473 292.1500206 C-297.40098447 291.38674496 -297.40052164 290.62346933 -297.40004479 289.83706412 C-297.39747401 284.50422919 -297.40178522 279.17142631 -297.40888596 273.83859634 C-297.41738844 267.30960824 -297.41484254 260.780728 -297.39904372 254.25175191 C-297.39126894 250.93124888 -297.38955077 247.61106907 -297.39799118 244.29054642 C-297.53632222 184.27335639 -279.57807928 126.85799592 -240 81 C-239.34257812 80.23171875 -238.68515625 79.4634375 -238.0078125 78.671875 C-226.76833692 65.86311415 -214.73831301 54.08630657 -201 44 C-199.8710548 43.15239563 -198.74214857 42.30473934 -197.61328125 41.45703125 C-169.79025778 20.82391386 -137.75859058 7.22792318 -104 0 C-103.04383789 -0.21317871 -102.08767578 -0.42635742 -101.10253906 -0.64599609 C-69.18036849 -7.48026725 -31.83322844 -7.03104156 0 0 Z " fill="#4E7B72" transform="translate(308,4)"/>
<path d="M0 0 C0.87495117 0.18191895 1.74990234 0.36383789 2.65136719 0.55126953 C38.85338687 8.18603395 73.39927827 24.53366826 102 48 C102.53866699 48.43715332 103.07733398 48.87430664 103.63232422 49.32470703 C118.71649974 61.62316531 132.51068329 75.27063219 144 91 C144.85806152 92.15105017 145.71613451 93.30209177 146.57421875 94.453125 C152.61297189 102.64586494 157.94713163 111.1709002 163 120 C163.65613281 121.12277344 164.31226563 122.24554688 164.98828125 123.40234375 C176.8541151 144.5420758 184.56858932 167.90408429 189.25 191.625 C189.40130371 192.38651367 189.55260742 193.14802734 189.70849609 193.93261719 C193.03119389 212.05164494 193.2986733 230.10932627 193.29052734 248.47363281 C193.29544755 251.19411246 193.30327648 253.91458226 193.31088257 256.63505554 C193.32734742 263.20881161 193.33298512 269.78253177 193.33410732 276.35630676 C193.33506313 281.69904759 193.33919965 287.04177673 193.34550858 292.38451385 C193.3630679 307.56530069 193.37235379 322.74605948 193.37084763 337.92685655 C193.37076772 338.7416726 193.3706878 339.55648865 193.37060547 340.39599609 C193.37052371 341.21181568 193.37044195 342.02763527 193.37035771 342.86817667 C193.36954247 356.12836736 193.38875357 369.38844513 193.4168822 382.64860311 C193.44560337 396.29640625 193.45942347 409.9441542 193.45769465 423.59198833 C193.45703132 431.24182732 193.46250101 438.89154729 193.48405075 446.54135895 C193.50225063 453.04271666 193.50661842 459.54390113 193.4930319 466.04527327 C193.48650102 469.35974868 193.48856283 472.67382235 193.5037384 475.98827934 C193.5191316 479.58251162 193.50992132 483.1758677 193.49447632 486.77008057 C193.50990701 488.33674434 193.50990701 488.33674434 193.52564943 489.93505788 C193.46650756 496.15378557 192.81842036 500.00332471 189 505 C184.84276452 508.22352135 181.1099449 508.42641861 176.0301218 508.38031673 C175.22923778 508.38497665 174.42835376 508.38963657 173.60320053 508.3944377 C170.9086873 508.40642701 168.21467466 508.39697717 165.52015686 508.38768005 C163.57320884 508.39185125 161.62626324 508.39732758 159.67932218 508.40399987 C154.32061159 508.4185013 148.96205417 508.4141951 143.60333502 508.40683305 C137.82750656 508.4021153 132.0517119 508.41459886 126.27589417 508.42485046 C114.95736817 508.44207105 103.63889762 508.44287174 92.32036192 508.43763756 C83.12334811 508.43360077 73.92635072 508.43503357 64.72933769 508.44038582 C63.42177697 508.44113424 62.11421626 508.44188266 60.76703249 508.44265376 C58.11097054 508.4441852 55.45490859 508.44572354 52.79884665 508.44726873 C34.95814364 508.45733046 17.11744651 508.46125675 -0.72325802 508.45364285 C-1.770001 508.45319709 -1.770001 508.45319709 -2.8378903 508.45274232 C-8.50498629 508.45029331 -14.1720822 508.44768176 -19.83917811 508.44505819 C-41.94676933 508.43495493 -64.05428461 508.44331171 -86.16186523 508.46655273 C-110.99300944 508.49261464 -135.82410748 508.50542663 -160.65526587 508.49836498 C-173.80552469 508.49486707 -186.95572112 508.49714251 -200.10597038 508.51461601 C-211.30024947 508.52930563 -222.49442225 508.5300159 -233.68869918 508.5125451 C-239.40282072 508.5040061 -245.1167521 508.50195616 -250.83086395 508.51719666 C-256.05854822 508.53096745 -261.28587805 508.52637906 -266.51354141 508.50695742 C-268.40783235 508.50317363 -270.30215117 508.50618724 -272.19641744 508.51656907 C-274.76613612 508.52965474 -277.33461618 508.5182316 -279.90428066 508.50057125 C-280.64434039 508.51022176 -281.38440012 508.51987227 -282.1468859 508.52981523 C-287.21927457 508.45795495 -290.09160186 507.1875999 -294 504 C-297.83985755 498.699476 -297.4210888 493.17066431 -297.38095093 486.88601685 C-297.3856309 485.76259632 -297.39031087 484.63917579 -297.39513266 483.48171222 C-297.40710505 479.71441357 -297.39761582 475.94747719 -297.38818359 472.18017578 C-297.39224871 469.47933897 -297.39748202 466.77852714 -297.40411377 464.07769775 C-297.4174568 457.49709625 -297.41456857 450.9165974 -297.40587585 444.33599187 C-297.3990916 438.97687376 -297.39818583 433.61778435 -297.4014473 428.25866318 C-297.401907 427.49485504 -297.40236669 426.73104691 -297.40284032 425.94409307 C-297.40379958 424.39203382 -297.40477222 422.83997457 -297.4057581 421.28791533 C-297.41431634 406.72568865 -297.40447646 392.16351857 -297.388357 377.60130118 C-297.37500181 365.15262925 -297.37724125 352.70404144 -297.39111328 340.25537109 C-297.40724534 325.7719878 -297.41344151 311.28865443 -297.40427649 296.8052634 C-297.40332097 295.25351581 -297.40237786 293.70176821 -297.4014473 292.1500206 C-297.40098447 291.38674496 -297.40052164 290.62346933 -297.40004479 289.83706412 C-297.39747401 284.50422919 -297.40178522 279.17142631 -297.40888596 273.83859634 C-297.41738844 267.30960824 -297.41484254 260.780728 -297.39904372 254.25175191 C-297.39126894 250.93124888 -297.38955077 247.61106907 -297.39799118 244.29054642 C-297.53632222 184.27335639 -279.57807928 126.85799592 -240 81 C-239.34257812 80.23171875 -238.68515625 79.4634375 -238.0078125 78.671875 C-226.76833692 65.86311415 -214.73831301 54.08630657 -201 44 C-199.8710548 43.15239563 -198.74214857 42.30473934 -197.61328125 41.45703125 C-169.79025778 20.82391386 -137.75859058 7.22792318 -104 0 C-103.04383789 -0.21317871 -102.08767578 -0.42635742 -101.10253906 -0.64599609 C-69.18036849 -7.48026725 -31.83322844 -7.03104156 0 0 Z M-104.875 17.6875 C-105.97505371 17.94732666 -107.07510742 18.20715332 -108.20849609 18.47485352 C-121.6527776 21.75458803 -134.47974447 26.36734285 -147.1875 31.8125 C-147.86570801 32.1024585 -148.54391602 32.39241699 -149.24267578 32.69116211 C-152.77273047 34.1004843 -152.77273047 34.1004843 -155 37 C-154.45400146 37.07927734 -153.90800293 37.15855469 -153.34545898 37.24023438 C-124.67063033 41.55501686 -97.79151411 51.77353177 -75 70 C-74.41669922 70.46519043 -73.83339844 70.93038086 -73.23242188 71.40966797 C-44.02651185 94.9839098 -24.0222942 127.97780301 -17 165 C-16.72700073 166.40125122 -16.72700073 166.40125122 -16.44848633 167.83081055 C-14.82402359 177.08657096 -14.60189295 186.19485145 -14.625 195.5625 C-14.62521149 196.35580719 -14.62542297 197.14911438 -14.62564087 197.96646118 C-14.65869787 210.40764367 -15.61286516 221.97942863 -19 234 C-19.36780326 235.44612816 -19.73368629 236.89274605 -20.09765625 238.33984375 C-25.59192707 259.30457438 -35.80798113 278.62459361 -50 295 C-50.68449219 295.80566406 -51.36898437 296.61132812 -52.07421875 297.44140625 C-81.1849956 330.83779118 -123.82937245 350.16735703 -167.7890625 353.19189453 C-189.06992968 354.34799069 -210.77920169 351.23428169 -230.58203125 343.234375 C-234.11137353 341.95977824 -237.2613858 341.28371368 -241 341 C-245.5595027 343.78636276 -246.79419186 349.03974377 -248 354 C-248 354.99 -248 355.98 -248 357 C-248.99 356.67 -249.98 356.34 -251 356 C-251.9921875 353.41796875 -251.9921875 353.41796875 -252.875 350.1875 C-254.85350638 343.89393706 -254.85350638 343.89393706 -260 340 C-263.73414364 338.33793999 -266.87752685 337 -271 337 C-270.67 336.01 -270.34 335.02 -270 334 C-267.49609375 332.83203125 -267.49609375 332.83203125 -264.4375 331.8125 C-263.42558594 331.46832031 -262.41367187 331.12414062 -261.37109375 330.76953125 C-260.58863281 330.51558594 -259.80617188 330.26164062 -259 330 C-262.56048093 326.28702174 -266.3165976 323.08465209 -270.4375 320 C-271.54130891 319.1679179 -272.64417776 318.33458726 -273.74609375 317.5 C-274.22747803 317.1390625 -274.7088623 316.778125 -275.20483398 316.40625 C-277.85247328 314.33221187 -280.41625951 312.15311707 -283 310 C-283 371.71 -283 433.42 -283 497 C-131.2 497 20.6 497 177 497 C177.061875 452.5325 177.12375 408.065 177.1875 362.25 C177.21481201 348.25239258 177.24212402 334.25478516 177.27026367 319.83300781 C177.28030212 307.19442859 177.28030212 307.19442859 177.28633118 294.55584717 C177.28910591 288.96287166 177.30001191 283.36998814 177.31672668 277.77703857 C177.33605244 271.30065849 177.34445529 264.82436525 177.34033485 258.34795623 C177.33855553 255.04688793 177.34279451 251.74616539 177.35764539 248.44510889 C177.60827378 189.94568222 161.54352151 134.65922451 120.99609375 91.1484375 C119.17614754 89.18959128 117.46282627 87.17704125 115.75 85.125 C105.89051434 73.89238962 94.03504708 64.75950558 82 56 C81.40026367 55.55946289 80.80052734 55.11892578 80.18261719 54.66503906 C58.54529693 38.94331062 33.57758566 28.39586213 8 21 C6.80375 20.649375 5.6075 20.29875 4.375 19.9375 C-2.46354468 18.03790426 -9.25342545 16.4864615 -16.25 15.3125 C-17.31154297 15.13364258 -17.31154297 15.13364258 -18.39453125 14.95117188 C-29.61673812 13.16347225 -40.73576578 12.81358117 -52.07641602 12.81469727 C-54.53354625 12.81252559 -56.99021521 12.79434973 -59.44726562 12.77539062 C-74.87166683 12.7184815 -89.84800281 14.08461279 -104.875 17.6875 Z " fill="#FAD4C4" transform="translate(308,4)"/>
<path d="M0 0 C0.87495117 0.18191895 1.74990234 0.36383789 2.65136719 0.55126953 C38.85338687 8.18603395 73.39927827 24.53366826 102 48 C102.53866699 48.43715332 103.07733398 48.87430664 103.63232422 49.32470703 C118.71649974 61.62316531 132.51068329 75.27063219 144 91 C144.85806152 92.15105017 145.71613451 93.30209177 146.57421875 94.453125 C152.61297189 102.64586494 157.94713163 111.1709002 163 120 C163.65613281 121.12277344 164.31226563 122.24554688 164.98828125 123.40234375 C176.8541151 144.5420758 184.56858932 167.90408429 189.25 191.625 C189.40130371 192.38651367 189.55260742 193.14802734 189.70849609 193.93261719 C193.03119389 212.05164494 193.2986733 230.10932627 193.29052734 248.47363281 C193.29544755 251.19411246 193.30327648 253.91458226 193.31088257 256.63505554 C193.32734742 263.20881161 193.33298512 269.78253177 193.33410732 276.35630676 C193.33506313 281.69904759 193.33919965 287.04177673 193.34550858 292.38451385 C193.3630679 307.56530069 193.37235379 322.74605948 193.37084763 337.92685655 C193.37076772 338.7416726 193.3706878 339.55648865 193.37060547 340.39599609 C193.37052371 341.21181568 193.37044195 342.02763527 193.37035771 342.86817667 C193.36954247 356.12836736 193.38875357 369.38844513 193.4168822 382.64860311 C193.44560337 396.29640625 193.45942347 409.9441542 193.45769465 423.59198833 C193.45703132 431.24182732 193.46250101 438.89154729 193.48405075 446.54135895 C193.50225063 453.04271666 193.50661842 459.54390113 193.4930319 466.04527327 C193.48650102 469.35974868 193.48856283 472.67382235 193.5037384 475.98827934 C193.5191316 479.58251162 193.50992132 483.1758677 193.49447632 486.77008057 C193.50990701 488.33674434 193.50990701 488.33674434 193.52564943 489.93505788 C193.46650756 496.15378557 192.81842036 500.00332471 189 505 C184.84276452 508.22352135 181.1099449 508.42641861 176.0301218 508.38031673 C175.22923778 508.38497665 174.42835376 508.38963657 173.60320053 508.3944377 C170.9086873 508.40642701 168.21467466 508.39697717 165.52015686 508.38768005 C163.57320884 508.39185125 161.62626324 508.39732758 159.67932218 508.40399987 C154.32061159 508.4185013 148.96205417 508.4141951 143.60333502 508.40683305 C137.82750656 508.4021153 132.0517119 508.41459886 126.27589417 508.42485046 C114.95736817 508.44207105 103.63889762 508.44287174 92.32036192 508.43763756 C83.12334811 508.43360077 73.92635072 508.43503357 64.72933769 508.44038582 C63.42177697 508.44113424 62.11421626 508.44188266 60.76703249 508.44265376 C58.11097054 508.4441852 55.45490859 508.44572354 52.79884665 508.44726873 C34.95814364 508.45733046 17.11744651 508.46125675 -0.72325802 508.45364285 C-1.770001 508.45319709 -1.770001 508.45319709 -2.8378903 508.45274232 C-8.50498629 508.45029331 -14.1720822 508.44768176 -19.83917811 508.44505819 C-41.94676933 508.43495493 -64.05428461 508.44331171 -86.16186523 508.46655273 C-110.99300944 508.49261464 -135.82410748 508.50542663 -160.65526587 508.49836498 C-173.80552469 508.49486707 -186.95572112 508.49714251 -200.10597038 508.51461601 C-211.30024947 508.52930563 -222.49442225 508.5300159 -233.68869918 508.5125451 C-239.40282072 508.5040061 -245.1167521 508.50195616 -250.83086395 508.51719666 C-256.05854822 508.53096745 -261.28587805 508.52637906 -266.51354141 508.50695742 C-268.40783235 508.50317363 -270.30215117 508.50618724 -272.19641744 508.51656907 C-274.76613612 508.52965474 -277.33461618 508.5182316 -279.90428066 508.50057125 C-280.64434039 508.51022176 -281.38440012 508.51987227 -282.1468859 508.52981523 C-287.21927457 508.45795495 -290.09160186 507.1875999 -294 504 C-297.83985755 498.699476 -297.4210888 493.17066431 -297.38095093 486.88601685 C-297.3856309 485.76259632 -297.39031087 484.63917579 -297.39513266 483.48171222 C-297.40710505 479.71441357 -297.39761582 475.94747719 -297.38818359 472.18017578 C-297.39224871 469.47933897 -297.39748202 466.77852714 -297.40411377 464.07769775 C-297.4174568 457.49709625 -297.41456857 450.9165974 -297.40587585 444.33599187 C-297.3990916 438.97687376 -297.39818583 433.61778435 -297.4014473 428.25866318 C-297.401907 427.49485504 -297.40236669 426.73104691 -297.40284032 425.94409307 C-297.40379958 424.39203382 -297.40477222 422.83997457 -297.4057581 421.28791533 C-297.41431634 406.72568865 -297.40447646 392.16351857 -297.388357 377.60130118 C-297.37500181 365.15262925 -297.37724125 352.70404144 -297.39111328 340.25537109 C-297.40724534 325.7719878 -297.41344151 311.28865443 -297.40427649 296.8052634 C-297.40332097 295.25351581 -297.40237786 293.70176821 -297.4014473 292.1500206 C-297.40098447 291.38674496 -297.40052164 290.62346933 -297.40004479 289.83706412 C-297.39747401 284.50422919 -297.40178522 279.17142631 -297.40888596 273.83859634 C-297.41738844 267.30960824 -297.41484254 260.780728 -297.39904372 254.25175191 C-297.39126894 250.93124888 -297.38955077 247.61106907 -297.39799118 244.29054642 C-297.53632222 184.27335639 -279.57807928 126.85799592 -240 81 C-239.34257812 80.23171875 -238.68515625 79.4634375 -238.0078125 78.671875 C-226.76833692 65.86311415 -214.73831301 54.08630657 -201 44 C-199.8710548 43.15239563 -198.74214857 42.30473934 -197.61328125 41.45703125 C-169.79025778 20.82391386 -137.75859058 7.22792318 -104 0 C-103.04383789 -0.21317871 -102.08767578 -0.42635742 -101.10253906 -0.64599609 C-69.18036849 -7.48026725 -31.83322844 -7.03104156 0 0 Z M-104.875 17.6875 C-105.977229 17.94805176 -107.07945801 18.20860352 -108.21508789 18.47705078 C-118.42037264 20.96801734 -128.21622594 24.19802581 -138 28 C-138.77327637 28.29068359 -139.54655273 28.58136719 -140.34326172 28.88085938 C-159.39438923 36.08316337 -176.83326141 46.67232863 -193 59 C-193.87398438 59.66257813 -194.74796875 60.32515625 -195.6484375 61.0078125 C-210.19539559 72.34250855 -223.67763529 85.46012877 -235 100 C-235.71671875 100.89976563 -236.4334375 101.79953125 -237.171875 102.7265625 C-243.87539404 111.35556041 -249.49804387 120.57349793 -255 130 C-255.37012207 130.62745117 -255.74024414 131.25490234 -256.12158203 131.90136719 C-266.92443976 150.39878508 -273.76505156 171.10736112 -278.625 191.875 C-278.83157227 192.74842041 -279.03814453 193.62184082 -279.25097656 194.52172852 C-283.08949175 211.5094988 -283.27697815 227.96165986 -283.22705078 245.31420898 C-283.22532016 248.10947045 -283.2266179 250.90472871 -283.2277813 253.69999027 C-283.22883831 260.398057 -283.21966557 267.09606947 -283.20677864 273.79412231 C-283.19230179 281.55289823 -283.19078495 289.31164219 -283.18920898 297.07043457 C-283.17873521 317.52613156 -283.15081274 337.98181661 -283.125 358.4375 C-283.08375 404.163125 -283.0425 449.88875 -283 497 C-131.2 497 20.6 497 177 497 C177.061875 452.5325 177.12375 408.065 177.1875 362.25 C177.21481201 348.25239258 177.24212402 334.25478516 177.27026367 319.83300781 C177.28030212 307.19442859 177.28030212 307.19442859 177.28633118 294.55584717 C177.28910591 288.96287166 177.30001191 283.36998814 177.31672668 277.77703857 C177.33605244 271.30065849 177.34445529 264.82436525 177.34033485 258.34795623 C177.33855553 255.04688793 177.34279451 251.74616539 177.35764539 248.44510889 C177.60827378 189.94568222 161.54352151 134.65922451 120.99609375 91.1484375 C119.17614754 89.18959128 117.46282627 87.17704125 115.75 85.125 C105.89051434 73.89238962 94.03504708 64.75950558 82 56 C81.40026367 55.55946289 80.80052734 55.11892578 80.18261719 54.66503906 C58.54529693 38.94331062 33.57758566 28.39586213 8 21 C6.80375 20.649375 5.6075 20.29875 4.375 19.9375 C-2.46354468 18.03790426 -9.25342545 16.4864615 -16.25 15.3125 C-17.31154297 15.13364258 -17.31154297 15.13364258 -18.39453125 14.95117188 C-29.61673812 13.16347225 -40.73576578 12.81358117 -52.07641602 12.81469727 C-54.53354625 12.81252559 -56.99021521 12.79434973 -59.44726562 12.77539062 C-74.87154719 12.71848194 -89.84816371 14.08431532 -104.875 17.6875 Z " fill="#FDFDFD" transform="translate(308,4)"/>
<path d="M0 0 C4.17084229 1.49901781 7.69700358 3.57160297 11.4375 5.9375 C13.612651 7.31141474 15.79998694 8.66625859 18 10 C18.93972656 10.64066406 19.87945312 11.28132812 20.84765625 11.94140625 C24.93003831 13.3123177 26.66900686 12.32039362 30.55908203 10.80419922 C34.79761409 9.40774747 39.01104956 9.51278234 43.4375 9.5625 C44.39543457 9.57007324 45.35336914 9.57764648 46.34033203 9.58544922 C64.61418307 10.00055742 86.36294149 15.5977773 101 27 C102.85313772 29.3145465 104.33422972 31.56152415 105.71875 34.1796875 C107.36448899 36.51784107 108.2276012 36.50577137 111 37 C146.11856918 39.35791004 175.22705157 31.19474339 203.9543457 11.36206055 C213.19988346 5 213.19988346 5 218.5625 5 C223.70388107 6.49567449 225.79749754 9.29991031 228.8125 13.5625 C232.88403496 25.34852224 228.35330552 37.29286815 223.3125 48.0625 C201.98987204 88.63398413 159.94379979 113.72274468 118 128 C116.72274048 128.38502686 116.72274048 128.38502686 115.41967773 128.77783203 C111.05235613 130.10179955 108.24439515 130.96991754 105.5625 134.875 C100.64836205 141.04888232 93.48470612 144.29681368 85.78515625 145.72265625 C53.02837444 148.98455177 16.89145142 139.6295733 -8.76953125 118.74609375 C-11.2919148 116.5634749 -13.70159339 114.41790782 -16 112 C-16.90878906 111.05640625 -17.81757813 110.1128125 -18.75390625 109.140625 C-22.56748999 103.60415693 -21.65741882 96.75395187 -21.5 90.3125 C-21.48042697 88.90812458 -21.46106019 87.50374627 -21.44189453 86.09936523 C-21.2401319 75.20819925 -20.3124884 64.65240614 -18 54 C-17.80132324 53.07203613 -17.60264648 52.14407227 -17.39794922 51.18798828 C-13.52075771 33.55039724 -8.36722208 16.06506639 0 0 Z " fill="#F9973C" transform="translate(46,148)"/>
<path d="M0 0 C1.2271875 0.3403125 2.454375 0.680625 3.71875 1.03125 C29.65651371 8.96263229 51.10996947 26.20557556 64.26953125 50 C76.94863743 73.94814119 79.99945343 102.28288409 72.29980469 128.37255859 C64.0347775 154.47237087 64.0347775 154.47237087 53.875 161.1875 C52.60454607 161.83508547 51.31350871 162.44491891 50 163 C49.01 163.433125 48.02 163.86625 47 164.3125 C42.19864869 165.41280968 37.73284874 165.57761625 33 164 C19.7332624 162.73650118 9.85444691 170.07228425 -0.6184082 177.27807617 C-9.03012008 182.98443811 -17.56216011 187.64537378 -28 186 C-34.85504369 184.01662389 -38.67021877 179.41502356 -43 174 C-45.47245728 171.12875929 -47.6111796 169.64145315 -51 168.0625 C-55.26038221 166.03941348 -57.90845729 163.63789489 -59.75 159.1875 C-60.75596392 150.38531574 -58.60107641 145.0196945 -55 137 C-49.62509571 125.35547761 -49.62509571 125.35547761 -50.734375 113.03515625 C-53.19348263 108.26811564 -56.19846851 104.97672441 -61.296875 103.19921875 C-63.02258841 102.68934888 -64.75324939 102.1959486 -66.48828125 101.71875 C-69.84705193 100.75760878 -72.8617183 99.53575487 -76 98 C-77.89022901 94.21954198 -77.61625099 90.10833991 -77 86 C-74.60659931 80.95741533 -70.5632679 77.55829703 -66.375 74 C-60.81185405 69.21158746 -58.70799494 64.39992074 -56.625 57.5 C-54.55123975 51.01113729 -50.47307582 46.3474085 -45.625 41.6875 C-38.53471619 34.78671153 -32.23268764 27.08802358 -31.8984375 16.90625 C-31.87759953 13.93336633 -31.91217432 10.97143557 -32 8 C-42.46753033 10.08187548 -52.34859993 12.27845177 -62 17 C-62.88558594 17.41765625 -63.77117187 17.8353125 -64.68359375 18.265625 C-86.3456218 29.20667836 -102.42145974 48.45517774 -111 71 C-119.73416139 97.6831377 -117.49532833 124.49650323 -105.69921875 149.7890625 C-97.27972294 166.24858388 -84.9951052 177.66356826 -70 188 C-70.66 188.99 -71.32 189.98 -72 191 C-98.4747282 175.87777391 -116.27538205 154.05165268 -124.99609375 124.640625 C-131.66257488 98.99540571 -128.5945508 71.78068203 -115.625 48.625 C-112.18134199 43.03660761 -108.26669819 37.97914874 -104 33 C-103.32324219 32.17757812 -102.64648438 31.35515625 -101.94921875 30.5078125 C-89.02269356 15.33627837 -71.31119197 4.76166377 -52 0 C-50.97519531 -0.29648437 -49.95039063 -0.59296875 -48.89453125 -0.8984375 C-33.15311505 -4.99835235 -15.60421582 -4.35793415 0 0 Z " fill="#D1684B" transform="translate(391,257)"/>
<path d="M0 0 C0.64549805 0.20898926 1.29099609 0.41797852 1.95605469 0.63330078 C32.85546166 10.67974703 57.1892826 32.13353431 72 61 C83.67915076 85.51317767 86.24327968 115.52830738 77.375 141.375 C72.78047825 153.99887999 66.78819735 165.47543639 58.8828125 176.328125 C58.26148438 177.20984375 57.64015625 178.0915625 57 179 C56.25169922 179.96486328 56.25169922 179.96486328 55.48828125 180.94921875 C54.70417597 183.24900929 54.70417597 183.24900929 56.59765625 186.06640625 C57.40678431 187.24047478 58.22927447 188.40540867 59.0625 189.5625 C59.91110364 190.8183485 60.75483851 192.07750025 61.59375 193.33984375 C62.00753906 193.96101074 62.42132813 194.58217773 62.84765625 195.22216797 C67.28592004 202.0695063 70.11464286 208.79720392 69.73828125 217.06640625 C68.09737643 223.58661534 63.17501455 227.90503314 57.71484375 231.5078125 C51.95822173 234.41150544 46.28879462 235.13854228 40.04296875 233.48046875 C30.90544417 229.70263272 23.22005871 220.10009109 18 212 C17.46777832 212.18030762 16.93555664 212.36061523 16.38720703 212.54638672 C10.57736416 214.50061803 4.74137445 216.3481225 -1.125 218.125 C-1.97964844 218.38925781 -2.83429688 218.65351563 -3.71484375 218.92578125 C-12.65016919 221.6297123 -20.95100509 222.15817121 -30.25 222.125 C-31.31863281 222.12886719 -32.38726562 222.13273438 -33.48828125 222.13671875 C-38.68423295 222.13040532 -43.75626362 221.96422151 -48.921875 221.38671875 C-53.04822542 220.97154488 -56.08464479 221.12019263 -60 222.6875 C-60.886875 223.02136719 -61.77375 223.35523438 -62.6875 223.69921875 C-66.20235143 225.67632268 -67.56994498 227.83194932 -68.94921875 231.578125 C-69.19285156 232.45984375 -69.43648438 233.3415625 -69.6875 234.25 C-69.93886719 235.14203125 -70.19023437 236.0340625 -70.44921875 236.953125 C-70.63097656 237.62859375 -70.81273437 238.3040625 -71 239 C-72.32 239 -73.64 239 -75 239 C-75.83764268 237.04350603 -76.66999059 235.08474444 -77.5 233.125 C-78.19609375 231.48917969 -78.19609375 231.48917969 -78.90625 229.8203125 C-80 227 -80 227 -80 225 C-80.66386719 224.80664062 -81.32773437 224.61328125 -82.01171875 224.4140625 C-90.78207381 221.82776801 -90.78207381 221.82776801 -95 220 C-95 219.01 -95 218.02 -95 217 C-92.8765984 216.16260219 -90.7512272 215.33019717 -88.625 214.5 C-87.44164062 214.0359375 -86.25828125 213.571875 -85.0390625 213.09375 C-82 212 -82 212 -80 212 C-80 211.34 -80 210.68 -80 210 C-81.09054687 209.58814453 -81.09054687 209.58814453 -82.203125 209.16796875 C-90.27302919 205.79799479 -97.30572458 200.54904664 -104 195 C-104.74121094 194.39414062 -105.48242188 193.78828125 -106.24609375 193.1640625 C-126.42222671 176.03008477 -140.80239572 149.3312924 -144 123 C-144.69018759 109.70632708 -144.2844645 96.92458109 -141 84 C-140.59974609 82.38158203 -140.59974609 82.38158203 -140.19140625 80.73046875 C-134.88027716 61.58679903 -124.67700579 45.2838354 -111 31 C-109.89785156 29.78570312 -109.89785156 29.78570312 -108.7734375 28.546875 C-81.99115518 0.06270852 -37.3600781 -12.84002684 0 0 Z M-57 10 C-58.03511719 10.25523437 -59.07023437 10.51046875 -60.13671875 10.7734375 C-73.85305578 14.45137289 -86.42908213 21.58728704 -97 31 C-97.79277344 31.639375 -98.58554687 32.27875 -99.40234375 32.9375 C-115.21515035 46.1273292 -126.14801456 65.10685968 -131 85 C-131.22429687 85.89074219 -131.44859375 86.78148437 -131.6796875 87.69921875 C-134.74503355 102.4170789 -134.13430513 118.59257303 -130 133 C-129.59974609 134.57201172 -129.59974609 134.57201172 -129.19140625 136.17578125 C-122.4720774 160.63413826 -107.00587349 181.92632635 -86 196 C-82.73572408 197.85213088 -79.44877083 199.52084321 -76 201 C-75.67 200.01 -75.34 199.02 -75 198 C-76.01707031 197.29037109 -76.01707031 197.29037109 -77.0546875 196.56640625 C-99.89318807 180.33905058 -115.21229575 158.75017218 -120.53125 131.015625 C-124.20004724 104.19449369 -118.40060999 77.36676765 -102.09301758 55.56298828 C-85.86467979 34.62992655 -63.10453698 22.02527975 -37 18 C-36.29013658 33.53812162 -40.80105217 40.8242917 -51 52 C-52.18529297 53.29744141 -52.18529297 53.29744141 -53.39453125 54.62109375 C-57.55172881 59.19478235 -61.05094763 63.11022198 -62.5546875 69.2734375 C-64.69943735 77.8789153 -69.46927959 83.25831562 -76.3125 88.75 C-79.82745567 91.69275358 -81.70466896 93.76131778 -82.31640625 98.3984375 C-82.65972635 103.65340823 -82.65972635 103.65340823 -80.33984375 108.21484375 C-77.5821597 110.31878634 -75.51618706 110.84419792 -72.125 111.5 C-64.83656618 113.14920765 -60.31062849 115.77353662 -56 122 C-52.41211 132.76367 -57.99151954 142.21724405 -62.2890625 151.90625 C-65.22088167 158.74013065 -66.12772005 163.43877879 -63.8125 170.75 C-61.11694121 175.58341576 -57.99583689 177.57518927 -53.0625 179.75 C-48.90162125 181.72094256 -46.93713905 184.36471403 -44.3671875 188.1015625 C-41.47049551 192.12382624 -37.75960644 194.73077161 -33 196 C-19.83504845 197.82171839 -9.98412062 190.47178622 0.34545898 183.39257812 C9.13681621 177.43056975 17.13665497 172.96539571 28 174 C28.99 174.33 29.98 174.66 31 175 C38.76660733 175.68128134 45.19977174 173.6767822 51.58984375 169.17578125 C64.63426377 157.39986236 70.15450985 133.48261358 71.14355469 116.54101562 C72.28368001 86.98806416 64.03220799 62.08773883 44.5625 39.8125 C27.49734703 21.41004373 3.00058869 8.13686809 -22.47460938 6.87768555 C-34.38154197 6.52754387 -45.49741428 6.67220791 -57 10 Z " fill="#E39C85" transform="translate(396,247)"/>
<path d="M0 0 C0.64549805 0.20898926 1.29099609 0.41797852 1.95605469 0.63330078 C32.85546166 10.67974703 57.1892826 32.13353431 72 61 C83.67915076 85.51317767 86.24327968 115.52830738 77.375 141.375 C72.78047825 153.99887999 66.78819735 165.47543639 58.8828125 176.328125 C58.26148438 177.20984375 57.64015625 178.0915625 57 179 C56.25169922 179.96486328 56.25169922 179.96486328 55.48828125 180.94921875 C54.70417597 183.24900929 54.70417597 183.24900929 56.59765625 186.06640625 C57.40678431 187.24047478 58.22927447 188.40540867 59.0625 189.5625 C59.91110364 190.8183485 60.75483851 192.07750025 61.59375 193.33984375 C62.00753906 193.96101074 62.42132813 194.58217773 62.84765625 195.22216797 C67.28592004 202.0695063 70.11464286 208.79720392 69.73828125 217.06640625 C68.09737643 223.58661534 63.17501455 227.90503314 57.71484375 231.5078125 C51.95822173 234.41150544 46.28879462 235.13854228 40.04296875 233.48046875 C30.90544417 229.70263272 23.22005871 220.10009109 18 212 C17.46777832 212.18030762 16.93555664 212.36061523 16.38720703 212.54638672 C10.57736416 214.50061803 4.74137445 216.3481225 -1.125 218.125 C-1.97964844 218.38925781 -2.83429688 218.65351563 -3.71484375 218.92578125 C-12.65016919 221.6297123 -20.95100509 222.15817121 -30.25 222.125 C-31.31863281 222.12886719 -32.38726562 222.13273438 -33.48828125 222.13671875 C-38.68423295 222.13040532 -43.75626362 221.96422151 -48.921875 221.38671875 C-53.04822542 220.97154488 -56.08464479 221.12019263 -60 222.6875 C-60.886875 223.02136719 -61.77375 223.35523438 -62.6875 223.69921875 C-66.20235143 225.67632268 -67.56994498 227.83194932 -68.94921875 231.578125 C-69.19285156 232.45984375 -69.43648438 233.3415625 -69.6875 234.25 C-69.93886719 235.14203125 -70.19023437 236.0340625 -70.44921875 236.953125 C-70.63097656 237.62859375 -70.81273437 238.3040625 -71 239 C-72.32 239 -73.64 239 -75 239 C-75.83764268 237.04350603 -76.66999059 235.08474444 -77.5 233.125 C-78.19609375 231.48917969 -78.19609375 231.48917969 -78.90625 229.8203125 C-80 227 -80 227 -80 225 C-80.66386719 224.80664062 -81.32773437 224.61328125 -82.01171875 224.4140625 C-90.78207381 221.82776801 -90.78207381 221.82776801 -95 220 C-95 219.01 -95 218.02 -95 217 C-92.8765984 216.16260219 -90.7512272 215.33019717 -88.625 214.5 C-87.44164062 214.0359375 -86.25828125 213.571875 -85.0390625 213.09375 C-82 212 -82 212 -80 212 C-80 211.34 -80 210.68 -80 210 C-81.09054687 209.58814453 -81.09054687 209.58814453 -82.203125 209.16796875 C-90.27302919 205.79799479 -97.30572458 200.54904664 -104 195 C-104.74121094 194.39414062 -105.48242188 193.78828125 -106.24609375 193.1640625 C-126.42222671 176.03008477 -140.80239572 149.3312924 -144 123 C-144.69018759 109.70632708 -144.2844645 96.92458109 -141 84 C-140.59974609 82.38158203 -140.59974609 82.38158203 -140.19140625 80.73046875 C-134.88027716 61.58679903 -124.67700579 45.2838354 -111 31 C-109.89785156 29.78570312 -109.89785156 29.78570312 -108.7734375 28.546875 C-81.99115518 0.06270852 -37.3600781 -12.84002684 0 0 Z M-57 10 C-58.03511719 10.25523437 -59.07023437 10.51046875 -60.13671875 10.7734375 C-73.85305578 14.45137289 -86.42908213 21.58728704 -97 31 C-97.79277344 31.639375 -98.58554687 32.27875 -99.40234375 32.9375 C-115.21515035 46.1273292 -126.14801456 65.10685968 -131 85 C-131.22429687 85.89074219 -131.44859375 86.78148437 -131.6796875 87.69921875 C-134.74503355 102.4170789 -134.13430513 118.59257303 -130 133 C-129.59974609 134.57201172 -129.59974609 134.57201172 -129.19140625 136.17578125 C-122.4720774 160.63413826 -107.00587349 181.92632635 -86 196 C-82.73572408 197.85213088 -79.44877083 199.52084321 -76 201 C-75.67 199.68 -75.34 198.36 -75 197 C-74.01 197.33 -73.02 197.66 -72 198 C-71.814375 198.928125 -71.62875 199.85625 -71.4375 200.8125 C-69.79557735 204.453285 -69.27612618 204.70342079 -65.75 206.1875 C-40.2048356 214.9583719 -12.25905178 213.69921134 12.21899414 202.24975586 C38.56288417 189.28206387 57.17988559 168.4385488 66.8125 140.5 C74.8964992 114.62588413 72.45034335 85.90503913 60.20239258 61.81445312 C48.12401145 38.94715836 27.52011669 20.36588235 2.78759766 12.27636719 C-16.73424174 6.3112486 -37.1348412 4.25284714 -57 10 Z " fill="#FBE7D6" transform="translate(396,247)"/>
<path d="M0 0 C7.83184748 6.19737496 11.85139789 13.45543379 15.625 22.5 C20.27309151 33.57897749 25.99991373 39.44248027 37.125 44.375 C41.96414403 45.82902811 46.85888252 46.82949482 51.8125 47.8125 C54.57544754 48.39336544 57.33482039 48.99021451 60.09375 49.58984375 C60.77821701 49.73759247 61.46268402 49.88534119 62.16789246 50.03756714 C72.31270188 52.25378214 82.23551042 55.22456943 92.125 58.375 C93.01783691 58.65843262 93.91067383 58.94186523 94.83056641 59.23388672 C129.04343757 70.25265636 129.04343757 70.25265636 137.125 82.375 C136.79925569 88.45556042 136.79925569 88.45556042 134.75 91.25 C128.45686972 95.6067825 117.41021767 94.14439593 110.125 93.375 C101.91328219 91.80982811 94.00675296 89.11636391 86.125 86.375 C85.25294922 86.07561523 84.38089844 85.77623047 83.48242188 85.46777344 C70.78563731 81.04105666 58.54300709 75.55471276 46.33520508 69.94287109 C27.08341271 60.95724336 27.08341271 60.95724336 6.4375 63 C1.83273408 64.87949629 -2.33320275 67.28478992 -6.48828125 70.0078125 C-15.51593694 75.17913736 -28.13701317 74.80034337 -38.125 72.6875 C-48.34965215 68.85325544 -57.5146302 60.83501758 -62.1875 50.9375 C-66.65751766 39.73367891 -67.52046643 28.67192974 -62.875 17.375 C-57.13159111 5.26229791 -48.08173958 -1.51972107 -35.875 -6.625 C-23.81346349 -10.51888186 -10.17660327 -6.86781696 0 0 Z " fill="#FDE8D7" transform="translate(125.875,375.625)"/>
<path d="M0 0 C1.90845149 0.76798929 3.81417691 1.54275481 5.71875 2.3203125 C7.31106445 2.96637451 7.31106445 2.96637451 8.93554688 3.62548828 C14.66786556 6.19662867 19.26098101 9.19084505 22.25 14.8125 C22.8275 15.864375 23.405 16.91625 24 18 C24.65484375 18.14953125 25.3096875 18.2990625 25.984375 18.453125 C28 19 28 19 29.125 20.65234375 C39.74232161 48.38061671 39.51703139 78.75723498 39 108 C37.3962669 108.64690922 35.79199694 109.29248764 34.1875 109.9375 C33.29417969 110.29714844 32.40085938 110.65679687 31.48046875 111.02734375 C29.6729091 111.73613486 27.84192591 112.3860247 26 113 C24.93325352 114.21105435 23.91811835 115.46820893 22.9375 116.75 C17.13022768 123.57201674 8.8461217 127.09973098 0 128 C-5.00743795 128.14550671 -9.9911352 128.11878731 -15 128 C-13.91929898 123.06994486 -12.80520501 118.15127625 -11.6328125 113.2421875 C-7.39432271 95.42177353 -3.50742335 77.62925533 -1.9296875 59.3515625 C-1.84498199 58.3705809 -1.76027649 57.3895993 -1.67300415 56.37889099 C-0.75024449 44.95187157 -0.54705101 33.52091832 -0.375 22.0625 C-0.33666055 19.90298183 -0.29760077 17.74347633 -0.2578125 15.58398438 C-0.16362465 10.38943036 -0.07899625 5.19480632 0 0 Z " fill="#FA973C" transform="translate(129,166)"/>
<path d="M0 0 C1.42934749 3.41171634 0.64266423 5.67801219 -0.68847656 9.02392578 C-0.9562793 9.65540527 -1.22408203 10.28688477 -1.5 10.9375 C-1.77553711 11.59991699 -2.05107422 12.26233398 -2.33496094 12.94482422 C-14.5733585 41.75117618 -36.10741584 62.93426414 -65 75 C-93.91628719 86.35843241 -126.44148578 86.27080669 -155 74 C-167.90537149 68.25008201 -179.16633633 60.14439282 -189 50 C-188.67 49.34 -188.34 48.68 -188 48 C-186.9584375 48.53109375 -185.916875 49.0621875 -184.84375 49.609375 C-175.02657407 54.49370877 -165.70083499 57.72745154 -155 60 C-152.70810991 60.56158896 -150.41642929 61.12403378 -148.125 61.6875 C-132.31812509 65.2387393 -112.19506345 67.04836321 -97.625 58.75 C-95.01410313 56.94546708 -93.37796543 55.21876368 -91.58203125 52.625 C-87.25722324 47.48945827 -81.27751768 46.20410511 -75.0625 44.25 C-72.53273131 43.3985329 -70.00661446 42.54102609 -67.484375 41.66796875 C-66.53465569 41.34039833 -66.53465569 41.34039833 -65.56575012 41.00621033 C-44.78287405 33.73226213 -25.53985775 22.50864715 -9 8 C-7.67935547 6.84371094 -7.67935547 6.84371094 -6.33203125 5.6640625 C-4.2096577 3.78847658 -2.09880093 1.9018764 0 0 Z " fill="#F9CBBB" transform="translate(243,229)"/>
<path d="M0 0 C1.2271875 0.3403125 2.454375 0.680625 3.71875 1.03125 C31.50837782 9.52890479 52.06764789 28.23872858 66.35546875 53.23046875 C67 55 67 55 66 58 C65.47792969 57.12859375 64.95585937 56.2571875 64.41796875 55.359375 C49.8648339 31.59003843 29.06622388 16.7685971 2.23583984 9.51464844 C-22.38627253 3.84709953 -48.33068716 8.46611951 -70 21 C-74.25751611 23.68247434 -78.14796723 26.76764207 -82 30 C-82.84820312 30.67417969 -83.69640625 31.34835937 -84.5703125 32.04296875 C-102.12461309 46.70823868 -113.2301528 69.18610889 -115.81030273 91.78344727 C-118.47965478 122.97398425 -109.35864406 149.19648452 -89.29296875 173.02734375 C-83.74860044 178.99280332 -76.67144997 183.40123351 -70 188 C-70.66 188.99 -71.32 189.98 -72 191 C-98.4747282 175.87777391 -116.27538205 154.05165268 -124.99609375 124.640625 C-131.66257488 98.99540571 -128.5945508 71.78068203 -115.625 48.625 C-112.18134199 43.03660761 -108.26669819 37.97914874 -104 33 C-103.32324219 32.17757812 -102.64648438 31.35515625 -101.94921875 30.5078125 C-89.02269356 15.33627837 -71.31119197 4.76166377 -52 0 C-50.97519531 -0.29648437 -49.95039063 -0.59296875 -48.89453125 -0.8984375 C-33.15311505 -4.99835235 -15.60421582 -4.35793415 0 0 Z " fill="#2E0805" transform="translate(391,257)"/>
<path d="M0 0 C3.16837569 3.48521326 3.58401879 6.98839961 3.41015625 11.5390625 C1.93092593 20.41444442 -4.21012299 28.54847098 -11.390625 33.72265625 C-13.87869178 35.27578996 -16.38546165 36.67204619 -19 38 C-19.6703125 38.34160156 -20.340625 38.68320313 -21.03125 39.03515625 C-26.58393418 41.48152326 -32.01912334 41.29684498 -38 41 C-35.7589027 38.58047138 -33.42281165 36.92061541 -30.625 35.1875 C-26.56547103 32.54516385 -23.86653511 29.88369273 -21 26 C-21.66 26.70125 -22.32 27.4025 -23 28.125 C-27.4216361 32.53407464 -32.81996269 37.49674768 -39 39 C-41.6875 38.875 -41.6875 38.875 -44 38 C-46.97868314 33.33269719 -46.89090542 28.32471379 -46 23 C-41.22885731 12.16704077 -32.55330954 4.90317104 -22 0 C-14.95061742 -2.64351847 -6.9147442 -3.4573721 0 0 Z " fill="#CD6649" transform="translate(340,71)"/>
<path d="M0 0 C1.21171875 0.48597656 2.4234375 0.97195312 3.671875 1.47265625 C9.81680894 3.52056719 15.82945987 3.39693139 22.25 3.4375 C45.12163367 3.93444186 45.12163367 3.93444186 54 12 C54.625 14.4375 54.625 14.4375 54 17 C50.00023268 21.94088904 45.18890104 24.71679667 39 26 C26.76176816 27.22784892 16.8853831 23.5023453 7.2890625 16.0078125 C1.74447701 11.144473 0.48846127 7.08268848 0 0 Z " fill="#CE6549" transform="translate(368,112)"/>
<path d="M0 0 C0.94746094 0.42442383 0.94746094 0.42442383 1.9140625 0.85742188 C9.72817485 4.06075756 16.62023649 4.52714826 25 4.5 C35.32056769 4.46656404 45.877601 4.74851285 54 12 C54.5625 14.875 54.5625 14.875 54 18 C50.08312706 22.95369225 45.64527928 25.65830623 39.37109375 26.46875 C26.66026701 26.56972976 15.59088108 23.92780782 6 15 C1.61982045 10.2740168 -0.12824892 6.41244593 0 0 Z " fill="#CF664A" transform="translate(324,155)"/>
<path d="M0 0 C0.73283203 -0.01224609 1.46566406 -0.02449219 2.22070312 -0.03710938 C4.12776507 -0.04236299 6.03434886 0.06531728 7.9375 0.1875 C9.9375 2.1875 9.9375 2.1875 10.16015625 4.0703125 C9.74495362 9.88314938 8.0906572 13.28519822 4.02734375 17.46484375 C0.62937852 20.26578331 -2.90676234 21.81429973 -7.0625 23.1875 C-7.71089844 23.41179687 -8.35929687 23.63609375 -9.02734375 23.8671875 C-17.53351519 26.40686241 -27.69134629 26.11602242 -36.0625 23.1875 C-43.4602841 19.03692806 -43.4602841 19.03692806 -44.77734375 14.9921875 C-44.87144531 14.39664062 -44.96554688 13.80109375 -45.0625 13.1875 C-44.40765625 13.10113281 -43.7528125 13.01476562 -43.078125 12.92578125 C-35.49388926 11.75815174 -29.02122315 9.36371824 -22.0625 6.1875 C-21.04027344 5.72472656 -20.01804687 5.26195312 -18.96484375 4.78515625 C-17.08666481 3.93143855 -15.2112832 3.07151687 -13.33984375 2.203125 C-8.8230642 0.18878078 -4.8661974 0.00430256 0 0 Z " fill="#CF664A" transform="translate(86.0625,456.8125)"/>
<path d="M0 0 C0.52207031 0.38671875 1.04414063 0.7734375 1.58203125 1.171875 C9.15562774 6.53042663 16.75006299 9.21631762 25.71459961 11.44433594 C32.25198133 13.07847912 37.74704768 14.70325886 43 19 C43.59683594 19.48726563 44.19367188 19.97453125 44.80859375 20.4765625 C47.25705594 22.68187486 48.84413753 24.40488875 49.6875 27.625 C48.70504578 31.01893277 46.90881098 32.10589052 44 34 C35.73841353 36.75386216 27.4612751 35.72124415 19.6875 32.0625 C11.69284932 27.61205473 4.39263597 21.73059806 0.57421875 13.1953125 C-0.56126885 8.85419663 -0.29407048 4.4437317 0 0 Z " fill="#D0674A" transform="translate(186,373)"/>
<path d="M0 0 C1.89453125 0.6328125 1.89453125 0.6328125 4 2 C4.94921875 4.6796875 4.94921875 4.6796875 5.6875 7.875 C6.96020302 12.32810404 6.96020302 12.32810404 10.04296875 15.57421875 C12.33673163 16.54628241 14.61224951 17.29480944 17 18 C19.00699249 18.98589105 21.01030767 19.97964496 23 21 C22.505 22.485 22.505 22.485 22 24 C19.3828125 25.0625 19.3828125 25.0625 16.125 26 C10.83843339 27.3992517 10.83843339 27.3992517 7 31 C5.77586103 33.94780466 5.77586103 33.94780466 4.8125 37.1875 C4.46832031 38.27417969 4.12414062 39.36085937 3.76953125 40.48046875 C3.38861328 41.72763672 3.38861328 41.72763672 3 43 C1.12109375 42.890625 1.12109375 42.890625 -1 42 C-2.02734375 39.234375 -2.02734375 39.234375 -2.9375 35.75 C-4.43822614 31.39074788 -5.1316032 29.50095707 -9.17578125 27.16796875 C-12.70796222 25.9013469 -12.70796222 25.9013469 -16.234375 25.02734375 C-17.14703125 24.68832031 -18.0596875 24.34929688 -19 24 C-19.890625 21.87890625 -19.890625 21.87890625 -20 20 C-19.09636719 19.69707031 -18.19273437 19.39414062 -17.26171875 19.08203125 C-15.49248047 18.45361328 -15.49248047 18.45361328 -13.6875 17.8125 C-11.92986328 17.20341797 -11.92986328 17.20341797 -10.13671875 16.58203125 C-5.02656982 14.00468341 -3.79752996 9.82119818 -1.8125 4.6875 C-1.46832031 3.80449219 -1.12414062 2.92148437 -0.76953125 2.01171875 C-0.38861328 1.01591797 -0.38861328 1.01591797 0 0 Z " fill="#F9FBFA" transform="translate(266,31)"/>
<path d="M0 0 C1.97265625 0.140625 1.97265625 0.140625 4 1 C4.87109375 3.109375 4.87109375 3.109375 5.4375 5.75 C6.72144962 10.48709835 7.85107318 13.08692372 12 16 C14.61585996 16.8543244 17.19987971 17.55174935 19.890625 18.12890625 C20.58671875 18.41636719 21.2828125 18.70382812 22 19 C22.796875 21.08984375 22.796875 21.08984375 23 23 C22.18015625 23.24234375 21.3603125 23.4846875 20.515625 23.734375 C19.43796875 24.06953125 18.3603125 24.4046875 17.25 24.75 C15.64898437 25.23726563 15.64898437 25.23726563 14.015625 25.734375 C9.54542327 27.61047003 7.61047003 29.54542327 5.734375 34.015625 C5.40953125 35.08296875 5.0846875 36.1503125 4.75 37.25 C4.41484375 38.32765625 4.0796875 39.4053125 3.734375 40.515625 C3.49203125 41.33546875 3.2496875 42.1553125 3 43 C1.125 42.8671875 1.125 42.8671875 -1 42 C-2.125 39.3828125 -2.125 39.3828125 -3 36.125 C-4.11704428 31.7566227 -4.11704428 31.7566227 -6.765625 28.25390625 C-9.36187852 26.79691783 -11.93607916 25.78397267 -14.75 24.8125 C-15.73484375 24.46832031 -16.7196875 24.12414062 -17.734375 23.76953125 C-18.85585938 23.38861328 -18.85585938 23.38861328 -20 23 C-19.86328125 21.11328125 -19.86328125 21.11328125 -19 19 C-16.41796875 17.98046875 -16.41796875 17.98046875 -13.1875 17.1875 C-7.87072093 15.67120219 -7.87072093 15.67120219 -4.375 11.6875 C-3.04991197 8.13385482 -1.95339235 4.66689364 -1 1 C-0.67 0.67 -0.34 0.34 0 0 Z " fill="#FCFCFC" transform="translate(57,318)"/>
<path d="M0 0 C1.87890625 0.109375 1.87890625 0.109375 4 1 C5.02734375 3.765625 5.02734375 3.765625 5.9375 7.25 C7.43822614 11.60925212 8.1316032 13.49904293 12.17578125 15.83203125 C15.70796222 17.0986531 15.70796222 17.0986531 19.234375 17.97265625 C20.14703125 18.31167969 21.0596875 18.65070313 22 19 C22.890625 21.12109375 22.890625 21.12109375 23 23 C22.18015625 23.23074219 21.3603125 23.46148437 20.515625 23.69921875 C14.05308047 25.58400958 14.05308047 25.58400958 8.4375 29.125 C6.37179209 33.25641582 5.14434027 37.53533911 4 42 C2.68 42 1.36 42 0 42 C-0.25652344 41.10796875 -0.51304687 40.2159375 -0.77734375 39.296875 C-2.77433183 32.54688086 -2.77433183 32.54688086 -7.16015625 27.31640625 C-9.42340146 26.34536448 -11.61984212 25.62409203 -14 25 C-15.010625 24.5875 -16.02125 24.175 -17.0625 23.75 C-17.701875 23.5025 -18.34125 23.255 -19 23 C-19 21.68 -19 20.36 -19 19 C-18.16855469 18.75765625 -17.33710938 18.5153125 -16.48046875 18.265625 C-15.39378906 17.93046875 -14.30710937 17.5953125 -13.1875 17.25 C-11.56908203 16.76273438 -11.56908203 16.76273438 -9.91796875 16.265625 C-5.68843845 14.43112993 -4.57193905 12.36959317 -2.83203125 8.203125 C-2.49558594 7.22859375 -2.15914063 6.2540625 -1.8125 5.25 C-1.46832031 4.26515625 -1.12414062 3.2803125 -0.76953125 2.265625 C-0.38861328 1.14414063 -0.38861328 1.14414063 0 0 Z " fill="#FAFBFB" transform="translate(428,203)"/>
<path d="M0 0 C1.86328125 0.10546875 1.86328125 0.10546875 4 1 C5.16796875 3.80078125 5.16796875 3.80078125 6.1875 7.3125 C7.79433165 12.10242902 7.79433165 12.10242902 11.14453125 15.6796875 C13.41346654 16.65047573 15.61491108 17.37461502 18 18 C19.010625 18.4125 20.02125 18.825 21.0625 19.25 C21.701875 19.4975 22.34125 19.745 23 20 C23 20.99 23 21.98 23 23 C22.09636719 23.31453125 21.19273437 23.6290625 20.26171875 23.953125 C19.08222656 24.38109375 17.90273438 24.8090625 16.6875 25.25 C15.51574219 25.66765625 14.34398437 26.0853125 13.13671875 26.515625 C8.93942732 28.50188994 7.62966943 30.28978674 6.05078125 34.578125 C5.68533203 35.90070313 5.68533203 35.90070313 5.3125 37.25 C5.06113281 38.14203125 4.80976563 39.0340625 4.55078125 39.953125 C4.36902344 40.62859375 4.18726563 41.3040625 4 42 C2.68 42 1.36 42 0 42 C-0.83764268 40.04350603 -1.66999059 38.08474444 -2.5 36.125 C-2.9640625 35.03445313 -3.428125 33.94390625 -3.90625 32.8203125 C-5 30 -5 30 -5 28 C-5.66386719 27.80664062 -6.32773437 27.61328125 -7.01171875 27.4140625 C-15.78207381 24.82776801 -15.78207381 24.82776801 -20 23 C-20 22.01 -20 21.02 -20 20 C-18.97519531 19.72929687 -17.95039063 19.45859375 -16.89453125 19.1796875 C-9.497285 17.12212337 -9.497285 17.12212337 -3.79882812 12.34179688 C-1.87628826 8.40989276 -0.85169425 4.28784004 0 0 Z " fill="#FBFCFB" transform="translate(321,444)"/>
<path d="M0 0 C3.95177533 -0.53196976 6.34321096 -0.3214074 9.9375 1.4375 C17.78247775 8.00166506 24.24624901 15.38634127 26 25.6875 C26.22647012 28.95999325 26.00321012 29.993446 24.5 33.0625 C22 35 22 35 18.625 35.5625 C12.27808667 34.57763414 8.35118006 30.87761204 4.38671875 26.0703125 C0.79204449 20.70361571 -2.12599329 13.49510809 -2.1875 7 C-2.20167969 6.319375 -2.21585937 5.63875 -2.23046875 4.9375 C-2 3 -2 3 0 0 Z " fill="#FEE7D6" transform="translate(426,299)"/>
<path d="M0 0 C1.32 0 2.64 0 4 0 C16.79245029 27.08188945 15.51722136 59.74649044 15 89 C13.39850114 89.67305018 11.79368971 90.33822227 10.1875 91 C9.29417969 91.37125 8.40085938 91.7425 7.48046875 92.125 C5 93 5 93 2 93 C2.28367432 91.79408203 2.56734863 90.58816406 2.85961914 89.34570312 C5.44416794 77.81606322 6.61113472 66.87916221 6.46655273 55.07275391 C6.43749626 52.49966848 6.44603786 49.92865046 6.45898438 47.35546875 C6.43811214 31.2863241 4.43284583 15.46780248 0 0 Z " fill="#A54330" transform="translate(153,185)"/>
<path d="M0 0 C4.19151647 1.51207977 7.78374185 3.5861754 11.5625 5.9375 C13.23505859 6.97197266 13.23505859 6.97197266 14.94140625 8.02734375 C17.38298081 9.6020502 19.71112757 11.21479143 22 13 C20.98679688 13.53496094 19.97359375 14.06992188 18.9296875 14.62109375 C14.84255637 16.96261508 11.53296599 19.83301917 8.125 23.0625 C7.51640137 23.63395752 6.90780273 24.20541504 6.28076172 24.79418945 C1.01876296 29.81992099 -3.56513238 35.23382412 -8 41 C-9.5179829 42.89811643 -11.0386991 44.79405106 -12.5625 46.6875 C-13.70896699 48.12449468 -14.8550516 49.56179506 -16 51 C-17.84409573 47.31180853 -15.62081451 43.00507257 -14.5625 39.1875 C-14.16067505 37.72570312 -14.16067505 37.72570312 -13.75073242 36.234375 C-10.24401659 23.85983876 -5.98527876 11.41464928 0 0 Z " fill="#F5943E" transform="translate(46,148)"/>
<path d="M0 0 C1.68204755 3.21048345 2.9945561 6.50072017 4.3125 9.875 C8.15911963 19.03573577 13.05300558 23.57460491 22 28 C31.12071634 31.60706296 41.08431945 30.75397076 50 27 C58.78731581 22.57085213 63.56242338 16.0975865 67 7 C68.9286201 11.96619676 66.47812099 16.07511317 64.58203125 20.734375 C60.3576382 29.4543567 53.67027656 34.61848385 44.875 38.3125 C32.78406497 40.45766589 22.00343036 39.23928637 11.6875 32.375 C5.520361 27.37290574 1.34091691 19.77731807 0 12 C-0.14146753 7.99343744 -0.11842735 4.0067921 0 0 Z " fill="#FAD1C0" transform="translate(67,404)"/>
<path d="M0 0 C5.01683293 3.45604046 9.46210627 7.41313966 11.109375 13.453125 C10.47 13.185 9.830625 12.916875 9.171875 12.640625 C8.16125 12.24875 7.150625 11.856875 6.109375 11.453125 C5.51761475 11.20409424 4.92585449 10.95506348 4.31616211 10.69848633 C-2.5420416 8.0668595 -9.11052715 8.00918736 -16.390625 7.953125 C-35.24982138 7.80789466 -35.24982138 7.80789466 -40.63085938 2.84960938 C-41.04658203 2.38876953 -41.46230469 1.92792969 -41.890625 1.453125 C-30.5820965 -11.22613423 -13.37975685 -7.87602708 0 0 Z " fill="#CE674A" transform="translate(409.890625,107.546875)"/>
<path d="M0 0 C8.62488939 4.64229174 16.11722157 11.18064262 19.7578125 20.484375 C19.9453125 23.359375 19.9453125 23.359375 19.7578125 25.484375 C18.8296875 24.5975 17.9015625 23.710625 16.9453125 22.796875 C9.02884515 16.11882532 -0.42512238 13.6568687 -10.34082031 11.44702148 C-16.92907944 9.88754469 -22.73946975 7.3781424 -27.2421875 2.171875 C-27.5721875 1.615 -27.9021875 1.058125 -28.2421875 0.484375 C-19.69236718 -6.29651697 -9.33753181 -4.33963619 0 0 Z " fill="#CE674A" transform="translate(215.2421875,370.515625)"/>
<path d="M0 0 C1.79296875 1.63671875 1.79296875 1.63671875 3 3 C2.10023437 3.02835937 1.20046875 3.05671875 0.2734375 3.0859375 C-12.02642774 3.99795156 -21.83509656 8.5066837 -32.78027344 14.00024414 C-36.68802474 15.76027951 -39.9840977 16.11863029 -44.25 16.0625 C-45.14203125 16.05347656 -46.0340625 16.04445313 -46.953125 16.03515625 C-47.62859375 16.02355469 -48.3040625 16.01195312 -49 16 C-48.86346978 10.53879121 -46.60717678 7.66784966 -43.03125 3.828125 C-39.99266834 1.09340151 -36.80349011 -0.56391588 -33 -2 C-32.08734375 -2.35578125 -31.1746875 -2.7115625 -30.234375 -3.078125 C-20.46672823 -5.86214026 -8.93452003 -4.88376872 0 0 Z " fill="#CF674A" transform="translate(89,452)"/>
<path d="M0 0 C5.98753396 3.44520804 11.11781864 7.94625921 14.953125 13.69921875 C14.458125 15.18421875 14.458125 15.18421875 13.953125 16.69921875 C11.21875 15.234375 11.21875 15.234375 8.484375 13.76953125 C-0.07695637 10.14946212 -8.60889418 10.33529364 -17.75976562 10.22070312 C-24.02681939 10.0648819 -30.46506969 9.89229656 -36.046875 6.69921875 C-36.376875 5.70921875 -36.706875 4.71921875 -37.046875 3.69921875 C-27.56771607 -6.59243951 -12.11209667 -5.31045445 0 0 Z " fill="#CF674B" transform="translate(362.046875,148.30078125)"/>
<path d="M0 0 C0 3 0 3 -1.46875 4.54296875 C-2.47421875 5.35701172 -2.47421875 5.35701172 -3.5 6.1875 C-4.60794922 7.12722656 -4.60794922 7.12722656 -5.73828125 8.0859375 C-6.85783203 9.03339844 -6.85783203 9.03339844 -8 10 C-23.8533509 23.68394499 -33.84518856 43.52430345 -43 62 C-43.33 62 -43.66 62 -44 62 C-44.6502588 51.54769187 -43.86081745 40.86242309 -37.0625 32.5 C-35.38664437 30.65601646 -33.69819526 28.8234309 -32 27 C-31.04725109 25.87081611 -30.10222309 24.73508318 -29.1640625 23.59375 C-9.28609605 -0.50195114 -9.28609605 -0.50195114 0 0 Z " fill="#A54432" transform="translate(70,161)"/>
<path d="M0 0 C4.683886 1.00368986 5.8982337 2.81018246 8.5 6.75 C10.7986071 10.90938428 11.1403016 15.08898096 10.5 19.75 C9.34367254 22.11293002 8.35016245 23.89983755 6.5 25.75 C2.25165901 26.24019319 0.22568665 26.29426499 -3.25 23.6875 C-6.55991416 19.36622318 -8.24235427 15.58572583 -9 10.1875 C-8.17242717 4.49793679 -5.90832618 1.2660699 0 0 Z " fill="#D2694C" transform="translate(315.5,397.25)"/>
<path d="M0 0 C0.99 0 1.98 0 3 0 C5.70763982 3.41753146 7.80688109 7.23680733 10 11 C10.4434375 11.73605469 10.886875 12.47210938 11.34375 13.23046875 C14.01749109 18.01455548 14.47118829 21.53421579 14 27 C13.67 27.66 13.34 28.32 13 29 C2.87158778 26.15138406 -6.0050235 14.76042033 -11 6 C-10.28972656 5.65066406 -9.57945312 5.30132812 -8.84765625 4.94140625 C-7.92855469 4.48636719 -7.00945312 4.03132813 -6.0625 3.5625 C-4.68771484 2.88380859 -4.68771484 2.88380859 -3.28515625 2.19140625 C-1.09471096 1.19474606 -1.09471096 1.19474606 0 0 Z " fill="#A9D2C4" transform="translate(424,451)"/>
<path d="M0 0 C3.35089397 2.75517949 4.70747703 4.3993143 5.48828125 8.671875 C5.71162351 13.39396849 5.54141065 16.16327444 2.9375 20.1875 C-0.76933604 22.47469671 -2.7194959 22.77827347 -7 22 C-9.67112728 19.87679626 -10.7665341 18.28767272 -11.37890625 14.91015625 C-11.68386443 9.15530022 -10.30585498 5.66708938 -7 1 C-4.32590305 -0.33704848 -2.97186266 -0.4837916 0 0 Z " fill="#D2694C" transform="translate(291,347)"/>
<path d="M0 0 C0.66 0 1.32 0 2 0 C2.05040538 6.27236837 2.08618086 12.54461237 2.10986328 18.81713867 C2.11976246 20.93955545 2.13328519 23.06195923 2.15087891 25.18432617 C2.31782613 45.88087118 1.12874196 66.14772861 -2.75 86.5 C-2.87772797 87.18748322 -3.00545593 87.87496643 -3.13705444 88.58328247 C-8.96588498 119.93176996 -8.96588498 119.93176996 -13 128 C-13.66 128 -14.32 128 -15 128 C-14.35377259 122.61713868 -13.14730855 117.58938565 -11.6875 112.375 C-9.07261159 102.74775896 -7.13928014 93.04975446 -5.39794922 83.23095703 C-5.07140003 81.40027821 -4.72756057 79.57269154 -4.37890625 77.74609375 C-1.0450986 59.57813424 -0.6430407 41.10273368 -0.375 22.6875 C-0.33668116 20.47069015 -0.29762226 18.25389296 -0.2578125 16.03710938 C-0.16338452 10.6915214 -0.07793396 5.34585262 0 0 Z " fill="#B04E32" transform="translate(127,166)"/>
<path d="M0 0 C2.99432697 0.44914905 3.68083306 1.00488535 5.5 3.375 C6.27495519 7.85758397 6.01478176 12.1015925 4.3125 16.3125 C1.31990427 19.71786755 -1.09610548 21.20653266 -5.625 21.75 C-8.5 21.375 -8.5 21.375 -10.375 20.3125 C-12.24225411 17.09667348 -12.04047585 15.03822518 -11.5 11.375 C-8.98339591 7.0619521 -5.18763542 0.77814531 0 0 Z " fill="#D2694C" transform="translate(311.5,299.625)"/>
<path d="M0 0 C0.66 0.33 1.32 0.66 2 1 C0.948125 2.39798828 0.948125 2.39798828 -0.125 3.82421875 C-13.68630275 21.9811896 -25.79135304 41.55691184 -32.78125 63.23828125 C-33.59585017 65.752576 -34.4917783 68.24190413 -35.46484375 70.69921875 C-37.53466126 76.15715405 -38.76732348 81.81822819 -40.0625 87.5 C-40.32562988 88.64388184 -40.58875977 89.78776367 -40.85986328 90.96630859 C-42.79947069 99.61347098 -44.22648846 108.17129931 -45 117 C-45.66 117 -46.32 117 -47 117 C-47.28994689 109.22165364 -46.55404964 102.15208025 -44.875 94.5625 C-44.6476416 93.51827881 -44.4202832 92.47405762 -44.18603516 91.39819336 C-36.9993622 59.22939278 -23.78342055 23.78342055 0 0 Z " fill="#AE4C31" transform="translate(99,159)"/>
<path d="M0 0 C1.75570312 0.01353516 1.75570312 0.01353516 3.546875 0.02734375 C4.43890625 0.03894531 5.3309375 0.05054688 6.25 0.0625 C6.745 1.0525 6.745 1.0525 7.25 2.0625 C5.72632812 2.08376953 5.72632812 2.08376953 4.171875 2.10546875 C-5.15568857 2.37401883 -12.29687867 3.85352558 -20.75 8.0625 C-22.70552128 8.96445528 -24.66379808 9.86046427 -26.625 10.75 C-27.52605469 11.15992188 -28.42710938 11.56984375 -29.35546875 11.9921875 C-35.16444344 14.58869495 -39.45875189 15.27943959 -45.75 15.0625 C-42.75471324 20.55385906 -39.62870236 22.93592396 -33.75 25.0625 C-30.4014737 25.91023843 -30.4014737 25.91023843 -26.75 26.0625 C-25.54923828 26.15724609 -25.54923828 26.15724609 -24.32421875 26.25390625 C-14.66584883 26.68720505 -4.26307236 24.41971507 3.25 18.0625 C6.49057757 14.64189034 7.98670651 11.58930167 9.25 7.0625 C10.52079419 9.95066861 10.18629246 11.28759998 9.3125 14.375 C5.79174288 21.7654181 -0.95399311 25.58579308 -8.35546875 28.3359375 C-17.89225213 31.22964339 -28.02257382 31.27887153 -37.29296875 27.46484375 C-41.3258641 25.16307995 -44.5170798 22.15491688 -46.75 18.0625 C-46.92578125 15.30859375 -46.92578125 15.30859375 -46.75 13.0625 C-45.99460938 13.03414063 -45.23921875 13.00578125 -44.4609375 12.9765625 C-32.84336896 11.96988794 -23.34221996 7.17104464 -13.00146484 2.06225586 C-8.57943322 0.09866667 -4.82949736 -0.04829497 0 0 Z " fill="#441B13" transform="translate(86.75,454.9375)"/>
<path d="M0 0 C3.81903145 0.51783477 4.24977729 0.59521938 6.5625 3.3125 C9.59152525 7.85603788 10.16302606 11.0790029 9.6875 16.5 C7.59535001 19.63822498 6.3785024 20.35604117 2.6875 21.125 C-0.3125 20.5 -0.3125 20.5 -2.625 17.6875 C-4.62720342 13.9055602 -5.46520187 11.16199332 -5.5 6.9375 C-5.51417969 6.15246094 -5.52835937 5.36742187 -5.54296875 4.55859375 C-5.1250813 0.82593807 -3.50947729 0.52973242 0 0 Z " fill="#FDE6D4" transform="translate(452.3125,337.5)"/>
<path d="M0 0 C1.2684375 0.433125 1.2684375 0.433125 2.5625 0.875 C4.2640625 1.431875 4.2640625 1.431875 6 2 C6.95261719 2.34546875 7.90523438 2.6909375 8.88671875 3.046875 C15.57961095 4.94650777 22.88101612 4.36007648 29.77734375 4.390625 C39.17038592 4.57995844 47.52230651 5.97259115 55 12 C54.67 12.66 54.34 13.32 54 14 C53.236875 13.401875 52.47375 12.80375 51.6875 12.1875 C42.23536951 5.9747291 30.70256411 6.56656184 19.8515625 6.56054688 C12.676413 6.44285494 7.27477691 5.58105955 1 2 C1.19174805 2.71905518 1.38349609 3.43811035 1.58105469 4.17895508 C2.03841146 5.89404297 2.49576823 7.60913086 2.953125 9.32421875 C5.8682023 16.77506932 12.25066814 20.3553608 19 24 C27.39444622 27.65813023 36.27611724 28.46923076 45 25.5 C45.70125 25.2215625 46.4025 24.943125 47.125 24.65625 C49 24 49 24 52 24 C44.3639293 30.61792794 37.8728363 30.53960846 28 30 C17.59811067 28.3231927 8.97760152 22.82504464 2.27734375 14.83203125 C-0.025564 11.52908404 -0.11313275 8.71122169 -0.0625 4.8125 C-0.05347656 3.91144531 -0.04445313 3.01039062 -0.03515625 2.08203125 C-0.02355469 1.39496094 -0.01195312 0.70789063 0 0 Z " fill="#42150E" transform="translate(367,110)"/>
<path d="M0 0 C0.33 0 0.66 0 1 0 C1.07476562 0.845625 1.14953125 1.69125 1.2265625 2.5625 C2.1295446 10.35293379 3.44760255 15.39813799 9 21 C9.58910156 21.61488281 10.17820313 22.22976563 10.78515625 22.86328125 C17.92027549 29.70537711 25.43479774 33.28142069 35.375 33.375 C39.36953962 33.25777875 43.10375073 32.89015433 47 32 C44.23931965 35.03674838 41.72861694 36.7299036 37.625 37.37109375 C25.95063975 37.66642727 16.4561043 32.83531887 8 25 C2.63079108 19.59546734 -1.13719832 14.61227742 -1.25 6.75 C-1.16981132 2.33962264 -1.16981132 2.33962264 0 0 Z " fill="#36100B" transform="translate(185,374)"/>
<path d="M0 0 C0.495 0.99 0.495 0.99 1 2 C0.42378906 1.84144531 -0.15242188 1.68289062 -0.74609375 1.51953125 C-9.88380371 -0.58673465 -17.97293228 2.05963963 -25.8984375 6.6953125 C-33.0553441 11.53847943 -38.1282212 17.2564424 -42 25 C-42.2275015 26.87056791 -42.40962811 28.74685958 -42.5625 30.625 C-42.68818359 32.12933594 -42.68818359 32.12933594 -42.81640625 33.6640625 C-42.87699219 34.43492188 -42.93757813 35.20578125 -43 36 C-45.42862861 33.57137139 -45.34839926 32.78663955 -45.4375 29.4375 C-45.28710971 21.99318046 -41.43332522 15.96119775 -36.56640625 10.46875 C-26.82170166 1.33157063 -13.22076211 -6.51792817 0 0 Z " fill="#310E0A" transform="translate(337,69)"/>
<path d="M0 0 C0.33 0 0.66 0 1 0 C1.14695312 0.64066406 1.29390625 1.28132812 1.4453125 1.94140625 C3.0630159 8.17979119 4.81902642 12.97035388 10 17 C18.58445886 21.97519741 25.83144398 25.17628583 35.875 25.25 C36.56980469 25.270625 37.26460938 25.29125 37.98046875 25.3125 C42.80041871 25.34880847 45.81283421 24.27481843 50 22 C50.66 22.33 51.32 22.66 52 23 C45.6320115 28.45827586 40.74578284 29.46192941 32.48046875 29.3125 C20.00983914 28.19280262 10.2175655 22.17653657 2.3125 12.734375 C0.08894131 9.79610101 -0.11434701 8.00429096 -0.0625 4.375 C-0.05347656 3.55773437 -0.04445313 2.74046875 -0.03515625 1.8984375 C-0.02355469 1.27195313 -0.01195312 0.64546875 0 0 Z " fill="#32120D" transform="translate(323,155)"/>
<path d="M0 0 C3.875 0.875 3.875 0.875 5 2 C5.51590826 6.64317437 5.83999524 10.66222981 3.3125 14.6875 C1 16 1 16 -1.6875 15.875 C-4 15 -4 15 -5 13 C-5.68149325 7.09372518 -5.68149325 7.09372518 -3.8828125 4.20703125 C-2.65466073 2.74643267 -1.33262899 1.36594471 0 0 Z " fill="#D26A4D" transform="translate(293,321)"/>
<path d="M0 0 C5.74400414 0.188328 8.74962772 0.88245185 13 5 C12.125 8.875 12.125 8.875 11 10 C7.09179282 10.4544427 5.20602037 10.10884095 1.6875 8.25 C-1 6 -1 6 -2 3.875 C-2 2 -2 2 0 0 Z " fill="#5A8379" transform="translate(240,452)"/>
<path d="M0 0 C1.06347656 0.42925781 1.06347656 0.42925781 2.1484375 0.8671875 C13.5975166 5.4154518 23.23640545 8.37672137 35.125 3.65625 C37 3 37 3 40 3 C32.3715279 9.61134249 25.86708275 9.55757481 16 9 C9.6601081 7.86399829 4.41719407 5.41518757 -1 2 C-0.67 1.34 -0.34 0.68 0 0 Z " fill="#2B0A06" transform="translate(379,131)"/>
<path d="M0 0 C2.375 0.75 2.375 0.75 3.375 1.75 C3.68367281 5.22256915 3.76201339 7.1372288 1.875 10.125 C1.38 10.66125 0.885 11.1975 0.375 11.75 C-4.375 11 -4.375 11 -6.625 8.75 C-6.42655087 5.64096369 -6.07476842 3.44714105 -4.375 0.8125 C-2.625 -0.25 -2.625 -0.25 0 0 Z " fill="#D36B4F" transform="translate(312.625,325.25)"/>
<path d="M0 0 C3.0625 0.25 3.0625 0.25 6 1 C7.39935013 3.79870027 7.25265405 5.90498792 7 9 C5.8125 10.9375 5.8125 10.9375 4 12 C1.375 11.8125 1.375 11.8125 -1 11 C-2.50662097 7.98675805 -2.17770373 5.31713623 -2 2 C-1.34 1.34 -0.68 0.68 0 0 Z " fill="#D36B4E" transform="translate(295,394)"/>
<path d="M0 0 C0.763125 0.20625 1.52625 0.4125 2.3125 0.625 C3 2.9375 3 2.9375 3.3125 5.625 C2.1875 7.4375 2.1875 7.4375 0.3125 8.625 C-2.3125 8.875 -2.3125 8.875 -4.6875 8.625 C-5.6875 7.625 -5.6875 7.625 -5.9375 4.6875 C-5.855 3.676875 -5.7725 2.66625 -5.6875 1.625 C-2.6875 -0.375 -2.6875 -0.375 0 0 Z " fill="#D36B4E" transform="translate(318.6875,287.375)"/>
<path d="M0 0 C2.625 0.25 2.625 0.25 4.5 1.4375 C5.625 3.25 5.625 3.25 5.3125 5.9375 C5.085625 6.700625 4.85875 7.46375 4.625 8.25 C1.75 8.875 1.75 8.875 -1.375 9.25 C-3.375 7.25 -3.375 7.25 -3.5625 4.1875 C-3.31750282 0.34921082 -3.31750282 0.34921082 0 0 Z " fill="#D36B4E" transform="translate(309.375,383.75)"/>
<path d="M0 0 C3.53571429 0.53571429 3.53571429 0.53571429 5 2 C5.125 5.5 5.125 5.5 5 9 C4 10 4 10 1.5 10.125 C-1 10 -1 10 -2 9 C-2.1875 5.5625 -2.1875 5.5625 -2 2 C-1.34 1.34 -0.68 0.68 0 0 Z " fill="#D2694C" transform="translate(300,336)"/>
<path d="M0 0 C1.2065625 0.0309375 1.2065625 0.0309375 2.4375 0.0625 C3.5625 5.8125 3.5625 5.8125 2.4375 8.0625 C-2.4375 7.1875 -2.4375 7.1875 -3.5625 6.0625 C-3.6875 3.5625 -3.6875 3.5625 -3.5625 1.0625 C-2.5625 0.0625 -2.5625 0.0625 0 0 Z " fill="#D26A4D" transform="translate(305.5625,350.9375)"/>
<path d="M0 0 C0.66 0.33 1.32 0.66 2 1 C-4.02818509 5.28670939 -8.71304215 5.474377 -16 5 C-16.33 4.01 -16.66 3.02 -17 2 C-16.02417969 1.93941406 -15.04835937 1.87882812 -14.04296875 1.81640625 C-12.77066406 1.73261719 -11.49835938 1.64882813 -10.1875 1.5625 C-8.92292969 1.48128906 -7.65835938 1.40007812 -6.35546875 1.31640625 C-3.00818107 1.12815453 -3.00818107 1.12815453 0 0 Z " fill="#3C1711" transform="translate(230,406)"/>
<path d="M0 0 C0.66 0 1.32 0 2 0 C2.33 0.99 2.66 1.98 3 3 C2.21625 3.2475 1.4325 3.495 0.625 3.75 C-2.09873976 4.71679916 -2.09873976 4.71679916 -2.9375 6.875 C-4.16238968 9.32477936 -5.51280498 10.5289522 -7.625 12.25 C-8.25664062 12.77078125 -8.88828125 13.2915625 -9.5390625 13.828125 C-10.02117187 14.21484375 -10.50328125 14.6015625 -11 15 C-11 12 -11 12 -9 9 C-8.34 9 -7.68 9 -7 9 C-7 8.34 -7 7.68 -7 7 C-1.58823529 3 -1.58823529 3 1 3 C0.67 2.01 0.34 1.02 0 0 Z " fill="#733122" transform="translate(338,71)"/>
<path d="M0 0 C0.66 0.33 1.32 0.66 2 1 C-2.83451572 4.94394703 -4.87215048 6.12901968 -11.125 6.0625 C-12.22070312 6.05347656 -13.31640625 6.04445312 -14.4453125 6.03515625 C-15.70988281 6.01775391 -15.70988281 6.01775391 -17 6 C-17 5.67 -17 5.34 -17 5 C-15.53626953 4.70996094 -15.53626953 4.70996094 -14.04296875 4.4140625 C-12.13451172 4.02347656 -12.13451172 4.02347656 -10.1875 3.625 C-8.92292969 3.36976563 -7.65835937 3.11453125 -6.35546875 2.8515625 C-2.89760982 2.17222819 -2.89760982 2.17222819 0 0 Z " fill="#2E0905" transform="translate(373,177)"/>
<path d="M0 0 C3.226345 3.80247803 5.77535219 7.55070439 8 12 C7.67 12.99 7.34 13.98 7 15 C5.63594382 12.880788 4.28368225 10.75551882 2.9375 8.625 C2.54755859 8.02171875 2.15761719 7.4184375 1.75585938 6.796875 C0.77539568 5.23507443 -0.11916075 3.62007786 -1 2 C-0.67 1.34 -0.34 0.68 0 0 Z " fill="#4E231C" transform="translate(450,300)"/>
<path d="M0 0 C0.66 0.33 1.32 0.66 2 1 C-4.14285714 6.57142857 -4.14285714 6.57142857 -9 7 C-9.33 6.01 -9.66 5.02 -10 4 C-9.36191406 3.79503906 -8.72382813 3.59007812 -8.06640625 3.37890625 C-7.24011719 3.10949219 -6.41382813 2.84007812 -5.5625 2.5625 C-4.73878906 2.29566406 -3.91507812 2.02882812 -3.06640625 1.75390625 C-1.03780412 1.17844506 -1.03780412 1.17844506 0 0 Z " fill="#36130D" transform="translate(417,133)"/>
<path d="M0 0 C0.66 0.66 1.32 1.32 2 2 C1.9765625 4.3828125 1.9765625 4.3828125 1.625 7.125 C1.51414062 8.03507812 1.40328125 8.94515625 1.2890625 9.8828125 C1.19367188 10.58148438 1.09828125 11.28015625 1 12 C-1.23551759 8.64672361 -1.17283528 8.09256343 -0.625 4.3125 C-0.51414062 3.50425781 -0.40328125 2.69601562 -0.2890625 1.86328125 C-0.19367188 1.24839844 -0.09828125 0.63351562 0 0 Z " fill="#B75533" transform="translate(120,257)"/>
<path d="M0 0 C-1.75 2.0625 -1.75 2.0625 -4 4 C-6.25 3.75 -6.25 3.75 -8 3 C-7 1 -7 1 -4.5625 -0.1875 C-2 -1 -2 -1 0 0 Z " fill="#340D09" transform="translate(86,478)"/>
<path d="M0 0 C0.66 0.33 1.32 0.66 2 1 C1.34 3.97 0.68 6.94 0 10 C-2 7 -2 7 -1.6875 3.875 C-1 1 -1 1 0 0 Z " fill="#B75533" transform="translate(61,229)"/>
<path d="M0 0 C0 0.66 0 1.32 0 2 C-1.98 2.33 -3.96 2.66 -6 3 C-6.33 2.01 -6.66 1.02 -7 0 C-3.86650268 -1.04449911 -3.01031744 -0.93423645 0 0 Z " fill="#3E1B15" transform="translate(325,68)"/>
</svg>
